<svg id="Layer_1" data-name="Layer 1" xmlns="http://www.w3.org/2000/svg" viewBox="0 0 2444.02 2443.98"><path d="M1622.78,3148.14a73.86,73.86,0,0,0-73.84-73.84h-369c-140.16,0-254.21-114.05-254.21-254.21V2451c1.38-95.83-149.07-95.78-147.68,0v369.05C778,3041.7,958.28,3222,1179.89,3222h369A73.87,73.87,0,0,0,1622.78,3148.14Z" transform="translate(-777.99 -778.01)"/><path d="M3222,2820.09V2451c1.38-95.83-149.08-95.78-147.68,0v369.05c0,140.16-114.05,254.21-254.21,254.21H2451.06c-95.83-1.38-95.78,149.07,0,147.68h369.05C3041.72,3222,3222,3041.7,3222,2820.09Z" transform="translate(-777.99 -778.01)"/><path d="M2377.22,851.82a73.83,73.83,0,0,0,73.84,73.8h369.05c140.16,0,254.21,114.05,254.21,254.25v369.05c-1.39,95.78,149.08,95.74,147.68,0V1179.87C3222,958.3,3041.72,778,2820.11,778H2451.06A73.83,73.83,0,0,0,2377.22,851.82Z" transform="translate(-777.99 -778.01)"/><path d="M925.68,1548.92V1179.87c0-140.2,114.05-254.25,254.21-254.25h369c95.83,1.4,95.78-149,0-147.6h-369C958.28,778,778,958.3,778,1179.87v369.05C776.61,1644.7,927.08,1644.66,925.68,1548.92Z" transform="translate(-777.99 -778.01)"/><path d="M2591.3,2397.22V1602.74c0-107-87.06-194.06-194.06-194.06H2168.11c-95.83-1.4-95.79,149,0,147.61h229.13a46.46,46.46,0,0,1,46.37,46.45v794.48a46.45,46.45,0,0,1-46.37,46.37H2168.11c-95.83-1.38-95.79,149.08,0,147.69h229.13C2504.24,2591.28,2591.3,2504.22,2591.3,2397.22Z" transform="translate(-777.99 -778.01)"/><path d="M1408.7,1602.74v794.48c0,107,87.06,194.06,194.06,194.06h204.63v237.78c-1.38,95.83,149.07,95.78,147.68,0V1170.9c1.39-95.79-149.08-95.74-147.68,0v237.78H1602.76C1495.76,1408.68,1408.7,1495.74,1408.7,1602.74Zm194.06,840.85a46.45,46.45,0,0,1-46.37-46.37V1602.74a46.46,46.46,0,0,1,46.37-46.45h204.63v887.3Z" transform="translate(-777.99 -778.01)"/></svg>